<svg xmlns="http://www.w3.org/2000/svg" viewBox="0 0 36 36" fill="white"><path d="M17.9989,2.1127A16.2911,16.2911,0,0,0,12.851,33.8593c.8146.1494,1.1118-.3535,1.1118-.7852,0-.3867-.0141-1.4111-.022-2.7705C9.41,31.288,8.4536,28.12,8.4536,28.12a4.314,4.314,0,0,0-1.8087-2.3828c-1.479-1.0107.1119-.99.1119-.99a3.4215,3.4215,0,0,1,2.4951,1.6787,3.4683,3.4683,0,0,0,4.7407,1.3535,3.4805,3.4805,0,0,1,1.0342-2.1777c-3.6172-.4111-7.42-1.8086-7.42-8.0508A6.2965,6.2965,0,0,1,9.2836,13.18a5.859,5.859,0,0,1,.16-4.311s1.3677-.438,4.48,1.67a15.44,15.44,0,0,1,8.1562,0c3.11-2.1079,4.4751-1.67,4.4751-1.67a5.8508,5.8508,0,0,1,.1621,4.311,6.2858,6.2858,0,0,1,1.6744,4.3711c0,6.2578-3.8086,7.6348-7.4375,8.0381a3.8878,3.8878,0,0,1,1.1059,3.0166c0,2.1777-.02,3.9346-.02,4.4687,0,.4356.2934.9424,1.12.7833a16.292,16.292,0,0,0-5.16-31.7447Z" fill-rule="evenodd"/></svg>
