<svg xmlns="http://www.w3.org/2000/svg" viewBox="0 0 32 32" fill="white"><path d="M13.3878,19.04q-.3706.82-.82,1.9727t-.9766,2.4023q-.5274,1.251-1.123,2.48a17.6254,17.6254,0,0,1-1.25,2.1973A8.1166,8.1166,0,0,1,7.87,29.6649a2.15,2.15,0,0,1-1.416.6055,2.3227,2.3227,0,0,1-.9961-.1855,1.613,1.613,0,0,1-.6055-.4688,1.7305,1.7305,0,0,1-.3027-.625,2.62,2.62,0,0,1-.0879-.6543,3.3223,3.3223,0,0,1,.1465-.957,5.057,5.057,0,0,1,.3613-.8984L12.45,12.7123a7.8007,7.8007,0,0,1,.9277-1.3476,3.9284,3.9284,0,0,1,.82-.7227,1.9474,1.9474,0,0,1,.6739-.2832A3.1141,3.1141,0,0,1,15.36,10.31a.9852.9852,0,0,1,.6446.2441,1.1123,1.1123,0,0,1,.2929.8887,6.3315,6.3315,0,0,1-.332,1.7187,17.322,17.322,0,0,1-1.23,2.8125,16.3233,16.3233,0,0,0,3.0079-.5175,10.5671,10.5671,0,0,0,2.666-1.1036,6.206,6.206,0,0,0,1.9043-1.7089,3.8979,3.8979,0,0,0,.7226-2.334,6.59,6.59,0,0,0-.3808-2.2364,5.5623,5.5623,0,0,0-1.1133-1.875A5.3216,5.3216,0,0,0,19.7354,4.91a6.0436,6.0436,0,0,0-2.48-.4785,13.1042,13.1042,0,0,0-3.291.3613,9.1807,9.1807,0,0,0-2.3633.9473A6.7127,6.7127,0,0,0,9.95,7.0873,11.5524,11.5524,0,0,0,8.8077,8.63q-.479.7815-.85,1.5429a10.6824,10.6824,0,0,1-.7715,1.3477,3.7085,3.7085,0,0,1-.9082.9473,2.0986,2.0986,0,0,1-1.25.3613,1.8573,1.8573,0,0,1-1.416-.4883,1.9482,1.9482,0,0,1-.459-1.3867,4.7562,4.7562,0,0,1,.4883-1.9629A9.618,9.618,0,0,1,5.0284,6.8529a13.8479,13.8479,0,0,1,2.1777-2.06A15.8689,15.8689,0,0,1,10.087,3.0443a18.0246,18.0246,0,0,1,3.4863-1.2207,16.7681,16.7681,0,0,1,3.9746-.4589,12.6957,12.6957,0,0,1,3.76.5566,9.5294,9.5294,0,0,1,3.1934,1.67,8.1892,8.1892,0,0,1,2.2168,2.7832,8.6946,8.6946,0,0,1,.83,3.916,7.0786,7.0786,0,0,1-.9863,3.7012,8.8848,8.8848,0,0,1-2.6562,2.793,13.03,13.03,0,0,1-3.8575,1.7573,16.9461,16.9461,0,0,1-4.6093.6152c-.3389,0-.6807-.0058-1.0254-.02A8.7466,8.7466,0,0,1,13.3878,19.04Zm12.17,3.4416c-.32,0-.5979.0033-.851.0083l.233-.498a7.6416,7.6416,0,0,0,.7052-2.4719q.0368-.9043-.5155-.9048a7.6729,7.6729,0,0,0-1.6649.2019q-.9032.2016-.99.4282-.2078.565-.6447,1.6318T21.2127,22.46l-.0866.1788a32.8822,32.8822,0,0,0-4.118.4457,2.2422,2.2422,0,0,0-.8175.5363,2.3,2.3,0,0,0-.4826.6591,3.9757,3.9757,0,0,0-.3563,1.039q-.127.6033.7152.6033l3.78-.258-1.7416,4.0338a.6543.6543,0,0,0-.1216.4039c-.0144.3555.31.5331.9777.5331a4.6634,4.6634,0,0,0,1.6537-.25q.6536-.25.7714-.5412l1.9384-4.3457h.618l2.3453.0446a2.5189,2.5189,0,0,0,1.5248-.7932,2.9567,2.9567,0,0,0,1.0254-1.4411Q29.0125,22.4809,25.5576,22.4815Z"/></svg>
